<?xml version="1.0" encoding="UTF-8"?>
<svg id="Layer_1" data-name="Layer 1" xmlns="http://www.w3.org/2000/svg" viewBox="0 0 560 160">
  <path d="M271.5,97.61h-26.93l-6.76,20.38c-.1,.61-.51,.92-1.23,.92h-12.19c-.82,0-1.02-.41-.82-1.13l24.17-69.02c.51-1.13,.92-3.38,1.02-6.55,0-.51,.31-.72,.82-.72h16.69c.41,0,.72,.2,.92,.61l26.93,75.78c.2,.72,0,1.02-.72,1.02h-13.72c-.51,0-.92-.31-1.13-.82l-7.07-20.48Zm-23.96-11.26h20.89c-.31-1.13-1.95-6.04-4.92-14.75-2.87-8.81-4.81-14.85-5.73-18.12h-.1c-.82,3.99-4.2,14.95-10.14,32.87Z"/>
  <path d="M326.9,120.04c-9.01,0-16.18-2.46-21.71-7.27-5.43-4.92-8.09-12.19-8.09-21.71,0-8.6,2.87-15.67,8.7-21.3,5.84-5.63,13.72-8.5,23.55-8.5,2.66,0,4.92,.2,6.55,.72v-26.01c0-.51,.31-.82,.82-.82h13.21c.51,0,.72,.2,.72,.72V105.91c0,1.33,.1,3.99,.31,7.88,.1,.51-.2,.92-.72,1.02-7.27,3.48-15.05,5.22-23.35,5.22Zm8.91-12.08v-35.23c-1.74-.82-3.99-1.23-6.76-1.23-5.12,0-9.22,1.64-12.29,5.02-3.07,3.28-4.61,7.88-4.61,13.93,0,6.35,1.54,11.06,4.61,14.13s6.96,4.61,11.78,4.61c3.17,.1,5.53-.31,7.27-1.23Z"/>
  <path d="M388.03,61.26c8.81,0,15.77,2.76,20.79,8.29,5.02,5.53,7.58,12.49,7.58,20.89,0,9.11-2.66,16.38-7.88,21.71-5.22,5.22-12.19,7.88-20.68,7.88-9.42,0-16.49-2.87-21.4-8.5-4.92-5.73-7.27-12.7-7.27-20.89,0-8.6,2.66-15.67,7.88-21.2,5.32-5.43,12.29-8.19,20.99-8.19Zm-.61,10.14c-3.99,0-7.27,1.74-9.73,5.12-2.46,3.38-3.69,7.99-3.69,13.93s1.23,10.65,3.69,14.13c2.46,3.48,5.94,5.22,10.34,5.22,3.79,0,6.96-1.64,9.52-4.81,2.56-3.28,3.79-8.09,3.79-14.44,0-5.84-1.13-10.44-3.48-13.93-2.25-3.48-5.73-5.22-10.44-5.22Z"/>
  <path d="M425.61,35.15h13c.61,0,.92,.31,.92,.92v27.34c3.79-1.43,7.78-2.05,12.08-2.05,8.09,0,14.54,2.56,19.35,7.78,4.92,5.12,7.27,11.78,7.27,19.87,0,9.73-2.97,17.31-9.01,22.94-6.04,5.53-13.21,8.29-21.61,8.29s-16.08-1.43-22.22-4.4c-.51-.2-.72-.61-.72-1.13V35.97c.1-.61,.31-.82,.92-.82Zm37.58,55.19c0-5.94-1.33-10.44-4.1-13.52-2.66-3.07-6.25-4.61-10.85-4.61-3.38,0-6.35,.61-8.81,1.84v33.89c2.25,1.23,5.22,1.84,8.91,1.84,4.1,0,7.58-1.64,10.44-5.02,2.97-3.38,4.4-8.19,4.4-14.44Z"/>
  <path d="M522.69,93.31h-23.35c.1,4.71,1.54,8.5,4.4,11.37,2.97,2.76,7.17,4.2,12.8,4.2s10.34-.92,14.44-2.87c.51-.2,.72,0,.72,.61v8.7c0,.72-.2,1.13-.72,1.43-4.92,2.25-10.75,3.38-17.51,3.38-5.22,0-9.73-.82-13.62-2.46-3.89-1.64-6.86-3.79-9.01-6.66-2.15-2.76-3.79-5.84-4.92-9.11-1.02-3.38-1.54-6.86-1.54-10.65,0-8.4,2.46-15.56,7.27-21.3,4.92-5.84,11.67-8.7,20.17-8.7s14.13,2.36,18.12,7.17c3.99,4.81,6.04,10.44,6.04,16.9,0,2.36-.2,4.61-.51,6.66-.1,.51-.41,.82-.92,.92-2.15,.31-6.14,.41-11.88,.41Zm-23.45-9.01h16.49c3.69,0,5.73-.1,6.14-.2,.1-.31,.1-.82,.1-1.64,0-2.97-.82-5.53-2.56-7.88-1.64-2.36-4.3-3.48-8.09-3.48s-6.55,1.23-8.6,3.79c-1.95,2.46-3.07,5.63-3.48,9.42Z"/>
  <polygon points="120.67 12.21 177.29 12.21 177.29 147.89 120.67 12.21"/>
  <polygon points="80.73 12.21 24 12.21 24 147.89 80.73 12.21"/>
  <polygon points="100.7 62.18 136.74 147.89 113.09 147.89 102.34 120.55 75.92 120.55 100.7 62.18"/>
</svg>