<?xml version="1.0" encoding="UTF-8"?>
<svg id="Layer_1" data-name="Layer 1" xmlns="http://www.w3.org/2000/svg" viewBox="0 0 120 36">
  <path d="M2,28.79V6.82H12.69c2.43,0,4.24,.65,5.42,1.96,.92,1.02,1.38,2.24,1.38,3.67,0,1.35-.34,2.43-1.01,3.24-.39,.45-.96,.87-1.72,1.25,1.27,.45,2.18,1.19,2.73,2.21,.47,.86,.7,1.9,.7,3.13,0,.88-.16,1.71-.49,2.48-.33,.78-.8,1.46-1.41,2.06-.74,.72-1.49,1.2-2.27,1.44-1.06,.35-2.64,.52-4.72,.52H2ZM6.41,10.59v4.84h5.39c.98,0,1.75-.18,2.3-.55,.63-.43,.95-1.06,.95-1.9s-.28-1.47-.84-1.84c-.56-.37-1.39-.55-2.5-.55H6.41Zm0,8.49v5.97h5.64c2.35,0,3.52-1.09,3.52-3.26,0-.9-.32-1.58-.97-2.03-.64-.45-1.42-.68-2.34-.68H6.41Z"/>
  <path d="M33.72,24.04h4.4c-.53,1.8-1.52,3.15-2.97,4.04-1.21,.74-2.61,1.1-4.23,1.1-2.51,0-4.43-.63-5.76-1.9-1.55-1.47-2.33-3.8-2.33-6.99,0-1.86,.4-3.47,1.2-4.84,1.31-2.27,3.5-3.4,6.59-3.4,2.06,0,3.74,.56,5.02,1.69,1.76,1.53,2.64,3.97,2.64,7.32v.77h-11.15c.14,1.43,.52,2.45,1.13,3.06,.61,.61,1.51,.92,2.69,.92,.65,0,1.23-.15,1.74-.44,.51-.3,.86-.74,1.04-1.33Zm-6.51-4.99h6.68c-.12-1.23-.53-2.13-1.23-2.73-.57-.49-1.27-.74-2.08-.74-1,0-1.78,.3-2.34,.9-.56,.6-.9,1.46-1.03,2.56Z"/>
  <path d="M56.17,17.54v11.24h-4.29v-9.9c0-.9-.12-1.57-.37-2.02-.43-.78-1.24-1.16-2.42-1.16-1,0-1.82,.33-2.45,.98-.63,.65-.95,1.58-.95,2.79v9.31h-4.29V6.82h4.29v7.81c.33-.69,.93-1.3,1.82-1.81,.89-.51,1.88-.77,2.99-.77,1.65,0,3.01,.47,4.08,1.42,1.06,.95,1.59,2.3,1.59,4.06Z"/>
  <path d="M73.6,16.81v8.82c0,.9,.08,1.52,.25,1.87,.16,.35,.4,.57,.7,.67v.61h-4.6c-.14-.43-.24-.75-.29-.95-.05-.2-.1-.52-.14-.95-.84,.88-1.67,1.48-2.48,1.81-.82,.33-1.75,.49-2.79,.49-1.39,0-2.52-.35-3.4-1.04-1.04-.84-1.56-2.05-1.56-3.65s.43-2.73,1.29-3.6c.86-.87,2.02-1.4,3.49-1.61l3.83-.58c.47-.06,.81-.16,1.01-.31,.33-.22,.49-.55,.49-.98,0-.8-.33-1.34-.98-1.62-.43-.18-1.04-.28-1.84-.28-.94,0-1.62,.26-2.05,.77-.29,.35-.48,.85-.58,1.5h-4.11c.18-2.27,1.03-3.85,2.54-4.75,1.08-.65,2.67-.98,4.75-.98,1.59,0,2.95,.29,4.08,.86,1.59,.82,2.39,2.11,2.39,3.89Zm-4.2,6.16v-2.08c-.21,.18-.51,.34-.92,.46-.41,.12-1.09,.27-2.03,.43-.94,.16-1.61,.38-2,.64-.57,.39-.86,.99-.86,1.81,0,.67,.23,1.18,.68,1.53,.37,.29,.8,.43,1.29,.43,1.03,0,1.92-.3,2.69-.89,.77-.59,1.16-1.37,1.16-2.33Z"/>
  <path d="M82.12,6.82V28.79h-4.29V6.82h4.29Z"/>
  <path d="M101.15,12.48l-5.88,16.3h-4.5l-5.85-16.3h4.81l3.34,12.04,3.52-12.04h4.57Z"/>
  <path d="M113.45,24.04h4.4c-.53,1.8-1.52,3.15-2.97,4.04-1.21,.74-2.61,1.1-4.23,1.1-2.51,0-4.43-.63-5.76-1.9-1.55-1.47-2.33-3.8-2.33-6.99,0-1.86,.4-3.47,1.2-4.84,1.31-2.27,3.5-3.4,6.59-3.4,2.06,0,3.74,.56,5.02,1.69,1.76,1.53,2.64,3.97,2.64,7.32v.77h-11.15c.14,1.43,.52,2.45,1.13,3.06,.61,.61,1.51,.92,2.69,.92,.65,0,1.23-.15,1.74-.44,.51-.3,.86-.74,1.04-1.33Zm-6.51-4.99h6.68c-.12-1.23-.53-2.13-1.23-2.73-.57-.49-1.27-.74-2.08-.74-1,0-1.78,.3-2.34,.9-.56,.6-.9,1.46-1.03,2.56Z"/>
  <rect x="26.06" y="8.5" width="9" height="2"/>
</svg>